<svg width="85" height="58" viewBox="0 0 85 58" fill="none" xmlns="http://www.w3.org/2000/svg">
<path d="M32.5096 24.8311C33.8393 26.1607 35.3486 27.167 37.0736 27.8857C38.8346 28.6404 40.7033 28.9998 42.6439 28.9998C44.5846 28.9998 46.4533 28.6045 48.2143 27.8857C49.9033 27.167 51.4486 26.1248 52.7783 24.8311C54.108 23.5014 55.1143 21.992 55.8689 20.267C56.6236 18.5061 56.983 16.6373 56.983 14.6967C56.983 12.7561 56.5877 10.8873 55.8689 9.12637C55.1502 7.4373 54.108 5.89199 52.7783 4.5623C51.4486 3.23262 49.9393 2.22637 48.2143 1.50762C46.4533 0.752929 44.5846 0.393555 42.6439 0.393555C40.7033 0.393555 38.8346 0.788867 37.0736 1.50762C35.3846 2.22637 33.8393 3.26855 32.5096 4.5623C31.1799 5.89199 30.1736 7.40137 29.4549 9.12637C28.7002 10.8873 28.3408 12.7561 28.3408 14.6967C28.3408 16.6373 28.7361 18.5061 29.4549 20.267C30.1377 21.992 31.1799 23.5373 32.5096 24.8311Z" fill="#CF5F72"/>
<path d="M62.5889 31.0121C60.7561 29.1793 58.7436 27.6699 56.5514 26.4121C56.2279 26.8074 55.8686 27.2027 55.5092 27.5621C53.8561 29.2152 51.8795 30.5449 49.7232 31.4434C47.4951 32.3777 45.0873 32.8809 42.6436 32.8809C40.1998 32.8809 37.792 32.4137 35.5639 31.4434C33.4076 30.509 31.467 29.2152 29.7779 27.5621C29.4186 27.2027 29.0592 26.8074 28.7357 26.4121C26.5436 27.6699 24.4951 29.2152 22.6982 31.0121C20.1107 33.5996 18.0623 36.6184 16.6607 39.9965C15.1873 43.4824 14.4326 47.184 14.4326 50.9934C14.4326 53.2574 14.6842 55.4855 15.2232 57.6418H70.0998C70.6029 55.4855 70.8904 53.2574 70.8904 50.9934C70.8904 47.184 70.1357 43.4824 68.6623 39.9965C67.2248 36.6184 65.1764 33.5996 62.5889 31.0121Z" fill="#CF5F72"/>
<path d="M83.1093 37.1219C81.9593 34.3906 80.3062 31.9469 78.2218 29.8625C76.7483 28.3891 75.1312 27.1313 73.3343 26.125C73.0827 26.4484 72.7952 26.7719 72.4718 27.0594C71.1062 28.425 69.5608 29.4672 67.7999 30.2219C67.189 30.4734 66.5421 30.6891 65.9312 30.8687C69.8124 34.5703 73.2983 40.8234 73.6218 51.425H84.2952C84.7265 49.6641 84.9421 47.8672 84.9421 46.0344C84.9062 42.9437 84.2952 39.9609 83.1093 37.1219Z" fill="#CF5F72"/>
<path d="M63.0562 28.2088C64.2421 28.101 65.428 27.8135 66.5421 27.3463C67.9437 26.7713 69.1655 25.9447 70.2437 24.8666C71.3218 23.7885 72.1483 22.5666 72.7233 21.165C73.3343 19.7275 73.6218 18.2182 73.6218 16.6369C73.6218 15.0557 73.3343 13.5463 72.7233 12.1088C72.1483 10.7072 71.3218 9.48535 70.2437 8.40723C69.1655 7.3291 67.9437 6.50254 66.5421 5.92754C65.1046 5.3166 63.5952 4.99316 62.014 4.99316C60.6124 4.99316 59.3187 5.10098 57.8812 5.71191C57.5937 5.81973 57.3062 5.96348 57.0187 6.10723C58.6718 8.58692 61.6546 15.8822 56.9468 23.7166C59.678 25.1182 61.5108 26.8791 63.0562 28.2088Z" fill="#CF5F72"/>
<path d="M1.89062 37.5174C3.04063 34.7861 4.69375 32.3424 6.77813 30.258C8.25156 28.7846 9.86875 27.5268 11.6656 26.5205C11.9172 26.8439 12.2047 27.1674 12.5281 27.4549C13.8937 28.8205 15.4391 29.8627 17.2 30.6174C17.8109 30.8689 18.4578 31.0846 19.0688 31.2643C15.1875 34.9299 11.7375 41.2189 11.4141 51.8205H0.740625C0.309375 50.0596 0.09375 48.2627 0.09375 46.4299C0.09375 43.3393 0.704688 40.3205 1.89062 37.5174Z" fill="#CF5F72"/>
<path d="M21.9438 28.6043C20.7579 28.4965 19.572 28.209 18.4579 27.7418C17.0563 27.1668 15.8345 26.3402 14.7563 25.2621C13.6782 24.184 12.8517 22.9621 12.2767 21.5605C11.6657 20.123 11.3423 18.6137 11.3423 17.0324C11.3423 15.4512 11.6657 13.9418 12.2767 12.5043C12.8517 11.1027 13.6782 9.88086 14.7563 8.80274C15.8345 7.72461 17.0563 6.89805 18.4579 6.32305C19.8954 5.71211 21.4048 5.38867 22.986 5.38867C24.3876 5.38867 25.6813 5.49649 27.1188 6.10742C27.4063 6.21524 27.6938 6.35899 27.9813 6.50274C26.3282 8.98242 23.3454 16.2777 28.0532 24.1121C25.322 25.5137 23.4892 27.2746 21.9438 28.6043Z" fill="#CF5F72"/>
</svg>
